<?xml version="1.0" encoding="UTF-8" standalone="no"?>
<!-- Created with Inkscape (http://www.inkscape.org/) -->

<svg
   xmlns:dc="http://purl.org/dc/elements/1.1/"
   xmlns:cc="http://creativecommons.org/ns#"
   xmlns:rdf="http://www.w3.org/1999/02/22-rdf-syntax-ns#"
   xmlns:svg="http://www.w3.org/2000/svg"
   xmlns="http://www.w3.org/2000/svg"
   xmlns:sodipodi="http://sodipodi.sourceforge.net/DTD/sodipodi-0.dtd"
   xmlns:inkscape="http://www.inkscape.org/namespaces/inkscape"
   width="181.3125"
   height="175.17596"
   id="svg2"
   version="1.1"
   inkscape:version="0.48.3.1 r9886"
   sodipodi:docname="atlas2.svg">
  <defs
     id="defs4" />
  <sodipodi:namedview
     id="base"
     pagecolor="#ffffff"
     bordercolor="#666666"
     borderopacity="1.0"
     inkscape:pageopacity="0.0"
     inkscape:pageshadow="2"
     inkscape:zoom="2.8"
     inkscape:cx="55.128383"
     inkscape:cy="122.08417"
     inkscape:document-units="px"
     inkscape:current-layer="flowRoot3022"
     showgrid="false"
     inkscape:window-width="979"
     inkscape:window-height="777"
     inkscape:window-x="502"
     inkscape:window-y="251"
     inkscape:window-maximized="0"
     fit-margin-top="0"
     fit-margin-left="0"
     fit-margin-right="0"
     fit-margin-bottom="0" />
  <metadata
     id="metadata7">
    <rdf:RDF>
      <cc:Work
         rdf:about="">
        <dc:format>image/svg+xml</dc:format>
        <dc:type
           rdf:resource="http://purl.org/dc/dcmitype/StillImage" />
        <dc:title></dc:title>
      </cc:Work>
    </rdf:RDF>
  </metadata>
  <g
     inkscape:label="Ebene 1"
     inkscape:groupmode="layer"
     id="layer1"
     transform="translate(-288.27339,-79.737743)">
    <g
       id="g2996"
       transform="translate(74.285716,-25.714285)">
      <g
         id="g2995"
         transform="translate(121.42857,-220)">
        <path
           style="fill:#2b2b2b;fill-opacity:0.85;stroke-width:0.71396363;stroke-miterlimit:4;stroke-dasharray:none;marker-start:none"
           d="m 188.57249,325.47069 c -8.56052,0 -33.44381,-0.82239 -44.6875,8.45144 1.09434,-0.15363 4.2499,-0.72935 7.94787,-1.4013 0.51342,-0.0933 -2.87351,3.96154 -3.88268,9.55665 -1.58707,8.79914 -1.19988,20.66365 -0.35016,20.511 0.97246,-0.1747 3.97163,-14.50633 7.19302,-23.07531 2.62313,-6.97761 6.19514,-8.01244 6.92346,-8.13735 3.46477,-0.59422 5.65295,-1.53624 6.44974,-1.52036 10.16451,0.20253 19.65239,2.38387 28.13963,6.19222 0.76987,0.34545 -4.10162,0.99965 -8.4807,2.2366 -5.14732,1.45396 -9.95164,3.52031 -9.09016,3.99337 1.55632,0.85462 25.54904,-2.02105 27.02405,-1.05336 6.69325,4.39113 12.52547,9.92047 17.28027,16.3531 0.51402,0.6954 -18.00289,-2.86925 -35.93234,-0.67839 -19.60868,2.39605 -38.78706,10.56201 -38.28387,11.36946 0.44141,0.70832 20.05459,-4.39838 40.44413,-5.27115 19.0068,-0.81358 38.88678,2.59799 39.25377,3.2903 5.43829,10.25909 8.47558,22.16643 8.47558,35.03115 0,3.68195 -0.24155,7.22418 -0.71186,10.63033 -0.0866,0.62703 -17.47675,-3.39609 -35.56453,-0.92355 -16.07485,2.19738 -33.21824,8.05745 -33.32151,8.60185 -0.13163,0.69394 19.29934,-3.17031 36.0175,-3.51718 17.12653,-0.35534 31.54973,2.8058 31.37453,3.49227 -1.93522,7.58259 -5.10097,14.41601 -9.32687,20.54888 -0.33428,0.48512 -13.49721,-0.56824 -24.23154,0.69399 -8.93452,1.05059 -16.83702,4.21577 -16.81569,4.70665 0.0464,1.06664 8.61525,-0.79807 17.36185,-1.05797 9.67412,-0.28746 20.00085,0.51662 19.60748,0.98077 -3.231,3.81237 -6.91066,7.31976 -10.98846,10.53656 -0.52696,0.41569 -0.71161,-15.37651 -0.63075,-32.43588 0.0936,-19.74533 -5.62968,-35.29532 -6.36723,-34.78148 -0.78927,0.54987 1.14802,17.91365 1.36525,37.9376 0.19397,17.87917 -1.95741,34.6216 -2.57043,35.01055 -5.65621,3.58879 -13.35811,7.62634 -21.9292,9.96167 -0.4631,0.12618 -5.40919,-14.29116 -12.86082,-30.5892 -9.67139,-21.15304 -17.10997,-46.96205 -17.74211,-46.82715 -0.55965,0.11943 3.45625,19.98355 9.75591,39.73874 6.23599,19.55551 14.75648,39.00428 14.19212,39.08867 -1.9114,0.28579 -3.84895,0.46879 -5.80114,0.52795 -2.65176,0.0804 -3.81718,-0.57481 -6.35168,-0.87539 -1.92493,-0.22828 -17.2323,-14.64236 -29.60529,-30.51197 -11.86994,-15.22441 -15.10223,-36.73927 -16.80428,-37.31508 -1.909,-0.64583 2.77208,20.62361 10.34533,37.94577 5.9755,13.66764 15.30175,24.33865 13.91297,23.56949 -7.47924,-4.1423 -14.19235,-9.78392 -20.06899,-16.16036 -0.35568,-0.38593 4.79368,-5.87001 11.80666,-11.87433 6.65002,-5.69356 13.48066,-9.6643 15.92107,-11.66346 2.28441,-1.87137 -9.41717,1.97275 -19.08811,8.09348 -7.77826,4.92286 -13.57688,10.46571 -13.86223,10.09668 -7.30149,-9.4427 -11.95392,-19.80086 -13.97725,-31.79277 -0.123074,-0.72942 6.98114,-12.19304 14.91239,-21.61736 8.30074,-9.86335 19.51524,-16.17664 19.43722,-16.94906 -0.0606,-0.60006 -10.46436,4.37707 -19.59328,11.71766 -1.06781,0.85863 -2.11818,1.74959 -3.13251,2.66775 -7.34785,6.65116 -12.923218,16.56226 -12.950217,16.01287 -0.05929,-1.20641 -0.0893,-2.42887 -0.0893,-3.66799 0,-13.44698 3.512147,-26.04897 9.624997,-36.83587 -9.903941,13.96354 -15.687497,30.82347 -15.687497,48.99683 0,48.11808 40.585457,87.14827 90.656247,87.14827 50.07079,0 90.65625,-39.03019 90.65625,-87.14827 0,-48.11807 -35.22832,-88.00903 -85.29911,-88.00903 z"
           id="path3018"
           inkscape:connector-curvature="0"
           sodipodi:nodetypes="scsssssssssssssssssssssssssssssssssssssssssssssssssssssscssss" />
        <path
           style="fill:#2b2b2b;fill-opacity:0.85;stroke:#000000;stroke-width:1px;stroke-linecap:butt;stroke-linejoin:miter;stroke-opacity:0"
           d="m 35.860415,56.637969 c 1.262691,0.564083 1.650522,-13.269913 6.159985,-23.496926 4.758985,-10.792906 10.381263,-18.171867 10.381263,-18.171867 -5.72951,3.467714 -9.81331,6.201173 -14.773481,15.278557 -3.471001,7.762626 -3.539574,16.391545 -1.767767,26.390236 z"
           id="path3979"
           inkscape:connector-curvature="0"
           sodipodi:nodetypes="csccc"
           transform="translate(77.902854,326.55105)" />
        <g
           transform="matrix(0.95821865,-0.28603673,0.28603673,0.95821865,-213.96624,-176.84869)"
           inkscape:transform-center-x="12.352604"
           inkscape:transform-center-y="66.381467"
           style="font-size:40px;font-style:normal;font-weight:normal;line-height:125%;letter-spacing:0px;word-spacing:0px;fill:#2b2b2b;fill-opacity:0.85;stroke:none;font-family:Sans;-inkscape-font-specification:Xtra"
           id="flowRoot3022">
          <path
             inkscape:connector-curvature="0"
             d="m 157.72656,659.73846 1.07422,-2.92969 7.51953,4.10157 -4.86328,-16.34766 -7.30469,19.72656 -2.65625,-1.5039 10.17578,-27.36329 9.55079,31.48438 z"
             style="font-variant:normal;font-stretch:normal;text-align:start;line-height:125%;writing-mode:lr-tb;text-anchor:start;fill:#ff0000;fill-opacity:0.84999999999999998;font-family:Xtra;-inkscape-font-specification:Xtra"
             id="path2991" />
          <path
             inkscape:connector-curvature="0"
             d="m 182.02344,639.36737 0,25.01953 -3.22266,0.70312 0,-25.17578 -5.82031,0.91797 0,-3.22266 14.70703,-2.40234 0,3.24219 z"
             style="font-variant:normal;font-stretch:normal;text-align:start;line-height:125%;writing-mode:lr-tb;text-anchor:start;fill:#ff0000;fill-opacity:0.85000001999999997;font-family:Xtra;-inkscape-font-specification:Xtra"
             id="path2993" />
          <path
             inkscape:connector-curvature="0"
             d="m 191.41797,637.43377 3.24219,-0.66406 0,24.76563 9.6289,0 -1.52344,3.18359 -11.34765,0 z"
             style="font-variant:normal;font-stretch:normal;text-align:start;line-height:125%;writing-mode:lr-tb;text-anchor:start;fill:#ff0000;fill-opacity:0.84999999999999998;font-family:Xtra;-inkscape-font-specification:Xtra"
             id="path2995" />
          <path
             inkscape:connector-curvature="0"
             d="m 212.57031,659.73846 1.07422,-2.92969 7.51953,4.10157 -4.86328,-16.34766 -7.30469,19.72656 -2.65625,-1.5039 10.17578,-27.36329 9.55079,31.48438 z"
             style="font-variant:normal;font-stretch:normal;text-align:start;line-height:125%;writing-mode:lr-tb;text-anchor:start;fill:#ff0000;fill-opacity:0.84999999999999998;font-family:Xtra;-inkscape-font-specification:Xtra"
             id="path2997" />
          <path
             inkscape:connector-curvature="0"
             d="m 238.07812,638.4494 -5.85937,6.8164 8.88672,10.82032 -8.71094,10.01953 -1.875,-2.96875 6.11328,-7.01172 -8.80859,-10.76172 8.51562,-9.94141 z"
             style="font-variant:normal;font-stretch:normal;text-align:start;line-height:125%;writing-mode:lr-tb;text-anchor:start;fill:#ff0000;fill-opacity:0.84999999999999998;font-family:Xtra;-inkscape-font-specification:Xtra"
             id="path2999" />
          <path
             style="fill:#ff0000;fill-opacity:0.85;stroke:#000000;stroke-width:0.35714287;stroke-miterlimit:4;stroke-opacity:0;stroke-dasharray:none"
             d=""
             id="path5484"
             inkscape:connector-curvature="0"
             transform="matrix(0.95821866,0.28603673,-0.28603673,0.95821866,150.04185,568.99143)" />
        </g>
      </g>
    </g>
  </g>
</svg>
